<?xml version="1.0" encoding="utf-8"?>
<!-- Svg Vector Icons : http://www.onlinewebfonts.com/icon -->
<!DOCTYPE svg PUBLIC "-//W3C//DTD SVG 1.1//EN" "http://www.w3.org/Graphics/SVG/1.1/DTD/svg11.dtd">
<svg version="1.1" xmlns="http://www.w3.org/2000/svg" xmlns:xlink="http://www.w3.org/1999/xlink" x="0px" y="0px" viewBox="0 0 1000 1000" enable-background="new 0 0 1000 1000" xml:space="preserve">
<metadata> Svg Vector Icons : http://www.onlinewebfonts.com/icon </metadata>
<g><g transform="translate(0.000000,511.000000) scale(0.100000,-0.100000)"><path d="M4559.4,4992.2c-730.1-113.3-1319.3-417.9-1832.9-951.7c-579.1-599.2-873.7-1336.9-873.7-2180.4c0-868.6,319.8-1624,944.2-2240.8c141-138.5,337.4-302.1,435.6-365.1c98.2-62.9,178.8-130.9,178.8-151.1c2.5-20.1-136-878.7-304.6-1908.5c-224.1-1367.1-299.6-1885.8-279.5-1916c70.5-113.3,100.7-105.7,1163.2,332.4L5000-3973.6L6007.1-4389c752.8-309.7,1024.7-410.4,1072.6-400.3c136,35.2,138.5,5-219,2019.2c-259.3,1450.2-327.3,1885.8-302.1,1893.3c105.7,35.3,450.7,302.1,657.1,508.6c616.9,614.3,931.6,1369.7,931.6,2228.2c0,873.7-307.2,1608.8-929.1,2230.7c-460.7,463.3-951.7,730.1-1588.7,868.6C5405.4,5007.3,4778.4,5027.4,4559.4,4992.2z M4848.9,4314.9V3912h-68c-234.1-2.5-652.1-156.1-926.5-339.9l-201.4-136l-269.4,269.4c-151.1,148.6-271.9,277-271.9,287c0,42.8,365.1,287,616.9,410.4c302.1,151.1,632,254.3,906.4,287c98.2,12.6,183.8,22.7,196.4,25.2C4841.4,4715.2,4848.9,4536.4,4848.9,4314.9z M5528.7,4662.3c390.3-73,871.1-284.5,1190.9-526.2c93.2-70.5,168.7-135.9,168.7-143.5c0-10.1-120.8-141-269.4-287L6347,3433.7l-163.7,115.8c-274.4,191.4-599.2,319.8-881.2,352.5l-151.1,17.6v397.8v400.3l120.8-15.1C5337.4,4695.1,5453.2,4677.4,5528.7,4662.3z M3169.6,3489.1l269.4-271.9l-100.7-135.9c-188.8-251.8-309.7-561.5-390.2-987l-12.6-70.5h-392.8h-392.8l15.1,146c45.3,380.2,186.3,808.2,367.6,1115.4c108.3,183.8,322.3,475.9,350,475.9C2890.1,3761,3021,3637.6,3169.6,3489.1z M7253.4,3604.9c324.8-430.5,518.6-913.9,581.6-1437.6l15.1-146l-397.8,7.6l-400.3,7.5l-17.6,143.5c-37.8,294.6-193.9,669.7-390.3,924l-85.6,113.3l271.9,271.9c148.5,148.5,279.5,271.9,287,271.9C7127.5,3761,7187.9,3690.5,7253.4,3604.9z M5438.1,3559.6c843.4-214,1415-1049.9,1299.2-1903.4c-55.4-423-198.9-712.5-503.6-1019.7c-178.8-181.3-251.8-234.2-453.2-332.3c-526.2-256.8-1034.8-256.8-1561,0c-198.9,98.2-274.4,153.6-455.7,332.3c-347.4,350-508.6,735.2-508.6,1223.6c0,299.6,47.8,523.7,171.2,778c219,448.2,642,793.1,1130.5,921.5C4803.6,3625,5183.8,3625,5438.1,3559.6z M2945.5,1666.2c88.1-475.9,201.4-762.9,390.3-1014.7l98.2-130.9L3162,248.7c-317.2-317.3-282-317.3-498.5-2.5c-249.3,357.5-402.8,740.2-470.8,1160.7c-57.9,349.9-98.2,314.7,352.5,314.7C2927.9,1721.6,2935.4,1721.6,2945.5,1666.2z M7845.1,1678.8c0-25.2-17.6-148.6-37.8-274.4c-65.4-412.9-226.6-805.7-470.8-1158.2C7120-68.5,7155.2-68.5,6838,248.7L6566,520.6l98.2,130.9c188.8,251.8,302.1,538.8,390.3,1014.7c10.1,55.4,17.6,55.4,400.3,55.4C7809.8,1721.6,7845.1,1716.6,7845.1,1678.8z M3864.5,150.5c234.2-153.6,528.7-271.9,803.2-317.2l181.3-30.2v-387.7v-387.7h-60.4c-120.9,0-488.4,75.5-682.3,141c-355,118.3-808.2,372.6-954.2,536.3l-50.4,55.4l261.8,261.8c146,146,269.4,264.4,279.5,264.4C3650.5,286.5,3751.2,226,3864.5,150.5z M6636.5,22.1l261.9-261.8l-57.9-62.9c-153.6-161.2-604.3-415.4-946.7-528.7c-193.9-65.5-561.5-141-682.3-141h-60.4v387.7v390.3l120.8,15.1C5576.6-139,5941.6,7,6183.3,183.2c75.5,55.4,151.1,100.7,163.7,103.3C6362.1,286.5,6490.5,168.1,6636.5,22.1z M4410.8-1239.3c274.4-55.4,848.5-60.4,1117.9-12.6c103.2,17.6,297.1,68,428,110.8c130.9,42.8,249.3,78,261.9,80.6c20.1,0,626.9-3310.9,611.8-3328.5c-2.5-2.5-402.8,158.6-886.3,360c-485.9,198.9-908.9,362.6-944.2,362.6c-35.2,0-458.2-163.7-944.2-362.6c-483.4-201.4-883.7-360-888.8-357.5c-7.6,7.5,508.6,3195,536.3,3305.8c12.6,52.9,12.6,52.9,249.3-30.2C4083.5-1158.7,4290-1216.6,4410.8-1239.3z"/><path d="M4869.1,3139.1c-22.7-25.2-88.1-214-146-423c-57.9-206.5-118.3-392.8-130.9-407.9c-20.1-25.2-138.5-32.7-433-32.7c-465.8,0-518.7-17.6-518.7-163.7c0-90.7-10.1-80.6,712.5-569c12.6-7.5-30.2-191.3-93.1-407.9C4196.8,921,4144,714.5,4144,679.2c0-78,100.7-153.6,173.7-128.4c27.7,7.5,188.8,123.4,360,256.8c171.2,130.9,322.3,244.2,339.9,251.8c15.1,7.5,181.3-93.2,365.1-221.6c367.6-256.8,445.6-282,528.7-173.7l47.8,65.5l-118.3,324.8c-62.9,181.3-130.9,367.6-148.6,420.5l-32.7,90.6l350,269.4c365.1,279.5,392.8,314.7,324.8,443.1c-25.2,45.3-57.9,47.8-488.5,47.8h-460.8l-133.4,385.2c-73,209-151.1,402.8-171.2,428c-20.1,22.7-68,42.8-105.8,42.8C4937.1,3181.9,4889.2,3161.8,4869.1,3139.1z M5075.5,2288.1c30.2-95.7,80.6-203.9,110.8-236.7c50.4-55.4,62.9-57.9,299.6-45.3c133.4,10.1,244.2,12.6,244.2,7.5c0-2.5-90.6-78-201.4-163.7c-146-113.3-201.4-171.2-201.4-211.5c0-32.8,35.3-151.1,75.5-264.4c42.8-115.8,75.5-214,75.5-221.6c0-5-88.1,50.4-198.9,128.4c-108.3,75.5-224.1,138.5-254.3,138.5s-130.9-57.9-224.1-130.9c-90.6-70.5-178.8-138.5-196.4-151.1c-17.6-15.1-7.5,47.8,25.2,161.1c30.2,100.7,52.9,229.1,55.4,284.5c0,98.2-5,103.2-209,241.7l-206.5,143.5l249.3,10.1c156.1,5,264.4,22.6,289.5,42.8c22.7,17.6,62.9,113.3,93.2,214c27.7,98.2,57.9,198.9,65.5,226.6C4984.9,2527.3,5012.6,2487,5075.5,2288.1z"/></g></g>
</svg>