<?xml version="1.0" encoding="utf-8"?>
<!-- Svg Vector Icons : http://www.onlinewebfonts.com/icon -->
<!DOCTYPE svg PUBLIC "-//W3C//DTD SVG 1.1//EN" "http://www.w3.org/Graphics/SVG/1.1/DTD/svg11.dtd">
<svg version="1.1" xmlns="http://www.w3.org/2000/svg" xmlns:xlink="http://www.w3.org/1999/xlink" x="0px" y="0px" viewBox="0 0 1000 1000" enable-background="new 0 0 1000 1000" xml:space="preserve">
<metadata> Svg Vector Icons : http://www.onlinewebfonts.com/icon </metadata>
<g><g transform="translate(0.000000,511.000000) scale(0.100000,-0.100000)"><path d="M4348.6,4969.9c-33.4-35.6-37.9-102.5-37.9-479c0-436.7,0-438.9-49-447.8c-29-6.7-131.4-26.7-229.5-46.8c-561.4-118.1-1187.5-405.5-1682-770.8c-231.7-171.5-626-550.3-808.7-777.5C842,1581.3,478.8,427.3,565.7-657.7c115.9-1414.7,831-2635.6,1996.2-3406.4c1305.5-862.2,3021-964.6,4420.1-262.9c2383.8,1198.6,3192.5,4170.5,1742.2,6409.6l-131.4,205l309.7,307.5c233.9,233.9,309.7,323,309.7,365.4s-100.3,156-427.8,483.5c-271.8,271.8-445.6,430-474.5,430c-26.7,0-164.9-120.3-360.9-316.4l-314.1-314.1L7425.3,3377c-298.5,191.6-463.4,280.7-744.1,394.3c-245.1,100.3-608.2,209.4-860,258.4l-129.2,24.5V4482c0,352-6.7,438.9-35.7,479c-33.4,49-37.9,49-652.8,49C4431.1,5010,4382.1,5007.8,4348.6,4969.9z M5447,4437.4v-352h-445.6h-445.6v352v349.8h445.6H5447V4437.4z M5420.2,3849.3c1958.3-211.6,3484.4-1677.6,3758.4-3609.1c42.3-296.3,42.3-880,0-1176.3c-169.3-1189.7-831-2243.4-1826.9-2909.6c-1434.7-960.2-3266.1-960.2-4700.8,0c-933.5,623.8-1555,1559.5-1797.9,2706.9c-44.6,205-49,303-51.2,779.7c0,623.8,29,831,191.6,1323.4C1610.6,2844.5,3477.5,4060.9,5420.2,3849.3z M8621.7,3272.3l311.9-311.9L8693,2719.8l-240.6-240.6L8140.5,2791c-169.3,171.6-309.7,316.4-309.7,323c0,15.6,452.3,470.1,467.9,470.1C8305.3,3584.2,8450.1,3443.8,8621.7,3272.3z"/><path d="M4930.1,2938.1c-46.8-29-53.5-140.3-11.1-173.8c13.4-11.1,122.5-29,238.4-37.9c115.9-6.7,307.4-33.4,423.3-55.7c986.9-189.4,1846.9-882.2,2247.9-1817.9c147-340.9,247.3-779.7,247.3-1080.5c0-124.8,8.9-162.7,44.6-198.3c55.7-55.7,93.6-55.7,144.8,0c35.6,37.9,37.9,73.5,26.7,294.1c-33.4,741.9-358.7,1479.3-893.4,2038.5c-392.1,409.9-822.1,692.9-1334.5,873.3C5694.3,2909.1,5032.6,3002.7,4930.1,2938.1z"/><path d="M4709.5,391.6c-164.9-69.1-267.3-149.3-363.1-289.6c-218.3-316.4-178.2-739.7,93.6-1011.5c57.9-55.7,160.4-129.2,227.2-160.4c104.7-49,153.7-57.9,336.4-57.9c196.1,0,225,6.7,347.6,69.1l135.9,69.1l741.9-744.1c409.9-409.9,761.9-755.2,784.2-766.4c55.7-31.2,149.3,31.2,149.3,98c0,35.7-218.3,265.1-759.7,808.7l-757.5,757.5l57.9,113.6c91.3,176,115.9,367.6,71.3,554.7c-91.4,372.1-392.1,610.4-773.1,610.4C4878.9,442.9,4800.9,429.5,4709.5,391.6z M5235.3,166.6C5444.7,70.8,5565-120.8,5565-348c-2.2-156-40.1-260.7-140.3-376.5C5306.6-856,5197.5-905,5001.4-905c-196,0-305.2,49-423.3,180.4C4475.6-608.7,4437.7-504,4437.7-348c0,73.5,15.6,169.3,33.4,213.9c89.1,207.2,309.7,354.2,530.2,354.2C5083.8,220.1,5161.8,202.3,5235.3,166.6z"/><path d="M1396.7-261.1c-26.7-17.9-49-57.9-49-86.9c0-104.7,66.8-122.5,456.7-122.5c389.9,0,456.7,17.8,456.7,122.5c0,104.7-66.8,122.5-456.7,122.5C1517-225.5,1436.8-232.2,1396.7-261.1z"/><path d="M4927.9-3117.2c-33.4-35.7-37.9-100.3-37.9-430c0-416.6,6.7-443.3,111.4-443.3c104.7,0,111.4,24.5,111.4,445.6c0,354.2-4.5,398.8-40.1,430C5019.2-3066,4972.4-3068.2,4927.9-3117.2z"/></g></g>
</svg>