<?xml version="1.0" encoding="utf-8"?>
<!-- Svg Vector Icons : http://www.onlinewebfonts.com/icon -->
<!DOCTYPE svg PUBLIC "-//W3C//DTD SVG 1.1//EN" "http://www.w3.org/Graphics/SVG/1.1/DTD/svg11.dtd">
<svg version="1.1" xmlns="http://www.w3.org/2000/svg" xmlns:xlink="http://www.w3.org/1999/xlink" x="0px" y="0px" viewBox="0 0 1000 1000" enable-background="new 0 0 1000 1000" xml:space="preserve">
<metadata> Svg Vector Icons : http://www.onlinewebfonts.com/icon </metadata>
<g><path d="M682.9,716.8C621.5,887.9,630.2,990,500,990c-128.3,0-121.5-102.5-182.9-273.9C276,601.1,163,470.3,163,346.9C163,160.8,313.9,10,500,10c186.1,0,337,150.8,337,336.9C837,469.4,724.2,601.6,682.9,716.8L682.9,716.8z M500,928.8c36.2,0,49.9-3.9,68.7-54.5l-129.9,16.2C454.7,925.2,469,928.8,500,928.8L500,928.8z M409.2,803.3c7.1,23.9,12.9,42.3,18.3,58l151.9-19c3.4-10.9,7-22.8,11-36.6c2.5-8.5,5.4-18,8.1-27.1l-189.6,23.7C409,802.6,409.1,803,409.2,803.3L409.2,803.3z M400,772.8l208.3-26c3.3-10.4,7-21.4,10.8-32.4H381.2C388.2,735,394.4,754.4,400,772.8L400,772.8z M500,71.2c-152.1,0-275.8,123.6-275.8,275.6c0,62.3,41.3,136.2,81.3,207.7c18.1,32.4,36.4,65.5,51.6,98.5h286c15.2-32.9,33.3-65.9,51.2-98.2c40-71.9,81.4-146.3,81.4-208.1C775.7,194.9,652,71.2,500,71.2L500,71.2z M500,193.8c-84.5,0-153.2,68.7-153.2,153.1c0,8.5-6.8,15.3-15.3,15.3c-8.5,0-15.3-6.9-15.3-15.3c0-101.3,82.5-183.8,183.8-183.8c8.5,0,15.3,6.8,15.3,15.3C515.3,186.9,508.5,193.8,500,193.8L500,193.8z"/></g>
</svg>