<?xml version="1.0" encoding="utf-8"?>
<!-- Svg Vector Icons : http://www.onlinewebfonts.com/icon -->
<!DOCTYPE svg PUBLIC "-//W3C//DTD SVG 1.1//EN" "http://www.w3.org/Graphics/SVG/1.1/DTD/svg11.dtd">
<svg version="1.1" xmlns="http://www.w3.org/2000/svg" xmlns:xlink="http://www.w3.org/1999/xlink" x="0px" y="0px" viewBox="0 0 1000 1000" enable-background="new 0 0 1000 1000" xml:space="preserve">
<metadata> Svg Vector Icons : http://www.onlinewebfonts.com/icon </metadata>
<g><path d="M710,10L528.6,396.4c87.5,7.9,164.6,51.5,216.8,116.2L885,220L710,10L710,10z M290,10l181.3,386.4c-87.5,7.9-164.7,51.5-216.8,116.2L115,220L290,10L290,10z M528.6,10H500H325l115,245h60h60L675,10H528.6z M500,430c-154.6,0-280,125.4-280,280c0,154.6,125.4,280,280,280c154.6,0,280-125.4,280-280C780,555.4,654.6,430,500,430L500,430z M500,920c-116,0-210-94-210-210c0-116,94-210,210-210c115.9,0,210,94,210,210C710,826,615.9,920,500,920L500,920z M500,517.5c-106.1,0-192.5,86.3-192.5,192.5c0,106.2,86.4,192.5,192.5,192.5c106.1,0,192.5-86.4,192.5-192.5C692.5,603.8,606.1,517.5,500,517.5L500,517.5z"/></g>
</svg>