<?xml version="1.0" encoding="utf-8"?>
<!-- Svg Vector Icons : http://www.onlinewebfonts.com/icon -->
<!DOCTYPE svg PUBLIC "-//W3C//DTD SVG 1.1//EN" "http://www.w3.org/Graphics/SVG/1.1/DTD/svg11.dtd">
<svg version="1.1" xmlns="http://www.w3.org/2000/svg" xmlns:xlink="http://www.w3.org/1999/xlink" x="0px" y="0px" viewBox="0 0 1000 1000" enable-background="new 0 0 1000 1000" xml:space="preserve">
<metadata> Svg Vector Icons : http://www.onlinewebfonts.com/icon </metadata>
<g><path d="M732.8,500L346.9,808.7V191.3L732.8,500z M408.1,681.3L634.7,500L408.1,318.7V681.3z"/><path d="M255,928.8h490c101.3,0,183.7-82.4,183.7-183.7V255c0-101.3-82.4-183.7-183.7-183.7H255C153.7,71.2,71.3,153.7,71.3,255v490C71.3,846.3,153.7,928.8,255,928.8z M990,255v490c0,135.1-109.9,245-245,245H255C119.9,990,10,880.1,10,745V255C10,119.9,119.9,10,255,10h490C880.1,10,990,119.9,990,255z"/></g>
</svg>