<?xml version="1.0" encoding="utf-8"?>
<!-- Svg Vector Icons : http://www.onlinewebfonts.com/icon -->
<!DOCTYPE svg PUBLIC "-//W3C//DTD SVG 1.1//EN" "http://www.w3.org/Graphics/SVG/1.1/DTD/svg11.dtd">
<svg version="1.1" xmlns="http://www.w3.org/2000/svg" xmlns:xlink="http://www.w3.org/1999/xlink" x="0px" y="0px" viewBox="0 0 1000 1000" enable-background="new 0 0 1000 1000" xml:space="preserve">
<metadata> Svg Vector Icons : http://www.onlinewebfonts.com/icon </metadata>
<g><g><g><path d="M984.5,590.9L885.7,420l-5.8-7.7c-6.9-7.6-16.2-12.5-26.5-13.4c-13.3-1-26.3,4.2-34.9,14.5L687.3,569.9c-14.5,17.3-12.3,43,5,57.5c17.3,14.5,43.1,12.3,57.5-5l59.5-70.8c-22.6,115.7-115,218.1-236.9,246.7c-103.2,24.3-210-6-285.6-80.7c-16-15.9-41.9-15.8-57.7,0.3c-15.9,16-15.7,41.9,0.3,57.7c74,73.1,171.5,112.5,272.3,112.5c29.7,0,59.7-3.4,89.4-10.4c147.2-34.5,260.4-155.2,294.6-294.5l28.1,48.7c7.6,13.1,21.3,20.4,35.4,20.4c6.9,0,14-1.8,20.4-5.5C989.1,635.4,995.8,610.5,984.5,590.9z M312.8,413.9c-17.3-14.5-43-12.3-57.5,5.1l-70.4,83.9c1.3-52.3,16.2-104.1,44.3-151c45.4-75.7,119.6-130.4,203.5-150.1c110-25.8,224.9,10.9,299.8,95.8c14.9,16.9,40.7,18.5,57.6,3.6c16.9-14.9,18.5-40.7,3.6-57.6C698.9,136.1,553.4,89.6,414,122.3c-105.3,24.6-198.2,93-254.9,187.5c-25.5,42.5-42,88.3-50.2,135.2l-23.1-38.5c-11.6-19.3-36.7-25.6-56.1-14c-19.3,11.6-25.6,36.7-14,56l104.6,174c6.8,11.3,18.6,18.7,31.8,19.7l3.2,0.1c12,0,23.5-5.3,31.3-14.6l131.2-156.4C332.3,454.1,330.1,428.3,312.8,413.9z"/></g></g><g></g><g></g><g></g><g></g><g></g><g></g><g></g><g></g><g></g><g></g><g></g><g></g><g></g><g></g><g></g></g>
</svg>