<?xml version="1.0" encoding="utf-8"?>
<!-- Svg Vector Icons : http://www.onlinewebfonts.com/icon -->
<!DOCTYPE svg PUBLIC "-//W3C//DTD SVG 1.1//EN" "http://www.w3.org/Graphics/SVG/1.1/DTD/svg11.dtd">
<svg version="1.1" xmlns="http://www.w3.org/2000/svg" xmlns:xlink="http://www.w3.org/1999/xlink" x="0px" y="0px" viewBox="0 0 1000 1000" enable-background="new 0 0 1000 1000" xml:space="preserve">
<metadata> Svg Vector Icons : http://www.onlinewebfonts.com/icon </metadata>
<g><g transform="translate(0.000000,511.000000) scale(0.100000,-0.100000)"><path d="M4778.3,4973.4c-109.2-49.5-142.2-90.7-220.5-272.1c-37.1-84.5-76.3-154.6-88.6-154.6c-10.3,0-66,51.5-119.5,115.4c-123.7,140.2-187.6,181.4-309.2,197.9c-74.2,10.3-113.4,4.1-189.6-33c-140.2-68-193.7-160.8-216.4-381.3c-10.3-98.9-22.7-183.4-28.9-189.6c-4.1-4.1-80.4,33-169,84.5c-195.8,115.4-311.2,125.7-449.3,45.3c-167-96.9-210.2-255.6-144.3-519.4c18.5-74.2,28.8-138.1,22.7-146.3c-6.2-6.2-78.3,4.1-160.8,22.7c-193.7,43.3-255.6,41.2-362.8-10.3c-115.4-55.7-191.7-179.3-191.7-315.3c0-96.9,39.2-195.8,140.2-346.3c28.9-43.3,45.4-84.5,39.2-92.8c-8.3-6.2-92.8-18.5-191.7-28.8c-214.4-18.6-319.5-76.3-381.3-210.2c-84.5-185.5-37.1-327.7,169-507c138.1-119.6,142.2-125.7,96.9-144.3c-136-51.5-298.9-131.9-331.8-162.8c-113.4-101-146.3-280.3-78.3-428.7c45.3-101,113.4-150.5,296.8-224.7c76.3-30.9,138.1-63.9,138.1-72.1c0-8.2-57.7-66-127.8-125.7c-195.8-171.1-245.3-327.7-158.7-507c61.8-129.9,175.2-189.6,387.5-206.1c92.7-6.2,173.1-20.6,179.3-28.8c4.1-8.3-28.9-78.3-76.3-156.7c-144.3-230.8-136-406,22.7-550.3c107.2-96.9,210.2-109.3,428.7-57.7c193.8,45.4,189.6,49.5,138.1-140.1c-59.8-220.5-30.9-354.5,98.9-467.9c140.2-123.7,288.5-117.5,517.3,20.6l152.5,92.7l12.4-74.2c6.2-43.3,12.4-107.2,12.4-146.3c0-265.9,220.5-455.5,459.6-393.7c66,18.6,121.6,59.8,237,179.3l148.4,154.6l33-78.3c16.5-45.4,55.6-129.8,84.5-189.6c84.5-177.2,253.5-259.7,430.8-210.2c119.6,33,210.2,136,286.5,325.6c35,80.4,66,148.4,72.1,146.4c6.2,0,51.5-51.5,103-115.4c199.9-245.3,410.2-294.7,599.8-136c86.6,74.2,119.6,160.8,136,358.6c6.2,88.6,20.6,162.8,30.9,162.8c10.3,0,82.5-37.1,160.8-84.5c171.1-101,274.1-119.5,401.9-72.1c107.2,43.3,185.5,125.7,220.5,241.2c20.6,72.1,18.5,111.3-18.6,272.1c-24.7,105.1-41.2,191.7-39.1,193.8c0,2.1,82.4-16.5,177.2-39.2c267.9-65.9,416.3-16.5,511.1,169c70.1,136,55.7,243.2-63.9,439c-109.2,181.4-119.5,167,138.1,189.6c150.5,12.4,199.9,30.9,276.2,101c113.4,101,146.4,284.4,80.4,424.6c-20.6,41.2-94.8,123.7-169,185.5c-74.2,61.8-134,117.5-134,123.7s74.2,41.2,164.9,78.3c187.5,80.4,274.1,162.8,311.2,296.8c16.5,66,16.5,107.2-2.1,171.1c-47.4,158.7-103.1,206.1-399.9,327.7l-78.3,33l154.6,148.4c121.6,117.5,160.8,171.1,179.3,239.1c61.8,237-138.1,457.6-414.3,457.6c-41.2,0-103.1,6.2-138.1,12.4l-61.8,12.4l94.8,158.7c88.6,142.2,96.9,169,96.9,284.4c0,111.3-8.3,138.1-63.9,206.1c-117.5,146.3-253.5,181.4-482.3,119.5c-187.6-49.5-185.5-49.5-152.5,88.6c49.5,204.1,53.6,261.8,30.9,350.4c-45.3,167-237,294.8-397.8,263.8c-39.1-6.2-140.1-53.6-224.6-105.1c-84.5-51.5-158.7-92.7-164.9-92.7c-6.2,0-18.6,80.4-26.8,177.3c-14.4,191.7-39.1,255.6-129.8,342.1c-175.2,164.9-379.2,125.7-591.5-115.4l-119.5-138.1l-68,156.6c-92.7,214.4-117.5,245.3-222.6,296.8C4982.3,5022.9,4887.5,5022.9,4778.3,4973.4z M5242,3786.2c472-70.1,857.4-265.9,1197.5-605.9c362.8-360.7,560.6-775,618.3-1294.4c43.3-387.5-26.8-779.1-208.2-1150.1C6726,480.2,6596.2,307.1,6369.4,96.9c-197.9-185.5-393.7-311.2-645.1-412.2c-286.5-115.4-451.4-144.3-812.1-142.2c-276.2,2.1-346.3,8.2-525.6,55.6c-805.9,214.4-1426.3,888.3-1568.5,1708.7c-68,391.6-6.2,882.1,156.6,1242.8c193.7,430.8,568.9,818.3,993.5,1032.6C4372.2,3784.2,4803,3854.2,5242,3786.2z"/><path d="M4695.8,3238c-608-94.8-1100.6-523.5-1288.2-1121.2c-63.9-204-78.3-527.6-33-752.3c220.5-1080,1420.1-1609.7,2378.5-1049.1c162.8,96.9,432.8,371,535.9,544.1c467.9,795.6,171.1,1811.7-649.2,2223.9C5361.6,3223.5,4988.5,3285.4,4695.8,3238z"/><path d="M7354.6-1267.6c-119.5-111.3-261.8-181.4-439-216.4l-127.8-26.8l422.5-793.5c230.8-437,412.2-795.6,404-799.7c-10.3-4.1-121.6,18.5-249.4,47.4s-235,51.5-237,51.5s-43.3-103-92.8-226.7l-88.6-228.8L6827-3238c-65.9,121.6-251.5,474.1-414.3,779.1L6118-1902.4l-177.2-6.2c-121.6-6.2-214.4,2.1-298.9,26.8l-123.7,33l-111.3-74.2c-61.8-41.2-115.4-82.4-119.5-90.7c-4.1-10.3,1442.8-2755.7,1465.4-2776.3c2.1-2.1,129.8,313.3,282.4,704.9c193.8,494.7,288.5,709,309.2,709c16.5,0,354.5-72.1,748.2-160.8c566.8-127.8,713.2-154.6,704.9-129.8c-24.7,65.9-1319.1,2496-1329.4,2496C7461.8-1172.8,7412.3-1216.1,7354.6-1267.6z"/><path d="M2474-1288.2c-43.3-78.3-1271.7-2397-1271.7-2403.2c0-4.1,325.6,63.9,725.5,154.6c399.9,88.6,735.8,160.8,750.2,160.8c12.4,0,146.3-315.3,296.8-700.8c152.5-385.4,280.3-700.8,286.5-700.8c6.2,0,338,614.2,735.8,1364.5l723.4,1364.4l-197.9,98.9c-181.4,90.7-204,96.9-267.9,76.3c-37.1-12.4-134-28.9-212.3-37.1l-146.3-12.4l-379.3-711.1c-208.2-391.6-393.7-737.9-412.2-770.9l-30.9-61.8l-90.7,224.7c-49.5,121.6-92.7,224.7-96.9,228.8c-4.1,4.1-115.4-16.5-249.4-45.3c-131.9-30.9-245.3-49.5-249.4-45.4c-6.2,6.2,179.3,364.8,410.2,801.8l422.5,791.4l-173.1,14.4c-183.4,14.4-424.6,103.1-496.7,183.4C2513.1-1271.7,2488.4-1263.5,2474-1288.2z"/></g></g>
</svg>