<?xml version="1.0" encoding="utf-8"?>
<!-- Svg Vector Icons : http://www.onlinewebfonts.com/icon -->
<!DOCTYPE svg PUBLIC "-//W3C//DTD SVG 1.1//EN" "http://www.w3.org/Graphics/SVG/1.1/DTD/svg11.dtd">
<svg version="1.1" xmlns="http://www.w3.org/2000/svg" xmlns:xlink="http://www.w3.org/1999/xlink" x="0px" y="0px" viewBox="0 0 1000 1000" enable-background="new 0 0 1000 1000" xml:space="preserve">
<metadata> Svg Vector Icons : http://www.onlinewebfonts.com/icon </metadata>
<g><path d="M487.7,34.3C331.3,34.3,204,161.5,204,318c0,156.4,127.2,283.7,283.7,283.7c156.4,0,283.7-127.2,283.7-283.7C771.4,161.5,644.1,34.3,487.7,34.3z M487.7,550.1c-128,0-232.1-104.1-232.1-232.1S359.7,85.9,487.7,85.9c128,0,232.1,104.1,232.1,232.1S615.7,550.1,487.7,550.1z"/><path d="M926.8,718.1c-36.4-48.5-86.1-87-148-114.5c-75.5-33.6-169.3-50.6-278.8-50.6c-109.5,0-203.3,17-278.8,50.6c-61.8,27.4-111.6,66-148,114.5C10.7,801.4,10,884.9,10,888.4c0,42.7,34.7,77.4,77.4,77.4h825.3c42.7,0,77.4-34.7,77.4-77.4C990,884.8,989.3,801.4,926.8,718.1z M912.6,914.1H87.4c-14.2,0-25.8-11.5-25.8-25.7c0-0.7,1.2-72,54.6-141.6c71.2-93,203.9-142.2,383.8-142.2c179.8,0,312.5,49.2,383.8,142.2c53.4,69.7,54.6,140.9,54.6,141.5C938.4,902.6,926.9,914.1,912.6,914.1z"/><path d="M487.7,707.3"/></g>
</svg>